<?xml version="1.0" standalone="no"?>
<!DOCTYPE svg PUBLIC "-//W3C//DTD SVG 20010904//EN"
 "http://www.w3.org/TR/2001/REC-SVG-20010904/DTD/svg10.dtd">
<svg version="1.0" xmlns="http://www.w3.org/2000/svg"
 width="484.000000pt" height="484.000000pt" viewBox="0 0 484.000000 484.000000"
 preserveAspectRatio="xMidYMid meet">
<metadata>
Created by potrace 1.11, written by Peter Selinger 2001-2013
</metadata>
<g transform="translate(0.000000,484.000000) scale(0.100000,-0.100000)"
fill="#000000" stroke="none">
<path d="M2178 3985 c-2 -2 -49 -6 -105 -9 -57 -4 -111 -9 -120 -10 -10 -2
-49 -7 -88 -10 -38 -4 -77 -9 -85 -11 -8 -2 -35 -6 -60 -9 -184 -24 -480 -97
-690 -171 -315 -112 -598 -280 -766 -457 -154 -163 -221 -302 -231 -481 -8
-140 23 -268 92 -377 l24 -38 -45 -88 c-55 -110 -74 -185 -74 -289 -1 -86 1
-99 26 -183 119 -413 687 -773 1469 -931 100 -20 124 -25 200 -36 23 -3 50 -7
60 -9 11 -2 49 -7 85 -11 36 -4 79 -8 97 -10 277 -32 808 -22 1083 20 14 2 48
6 75 10 79 10 343 64 420 86 272 79 408 130 605 229 290 145 529 367 619 575
57 129 70 277 36 408 -16 64 -82 207 -95 207 -4 0 -17 -26 -28 -57 -24 -65
-96 -177 -160 -248 -102 -113 -286 -246 -473 -339 -165 -84 -489 -198 -624
-222 -16 -3 -48 -10 -70 -15 -57 -16 -67 -17 -220 -43 -91 -15 -132 -20 -240
-31 -33 -4 -76 -9 -95 -12 -64 -9 -604 -11 -697 -3 -138 13 -204 20 -243 25
-19 2 -55 7 -80 10 -192 25 -500 100 -692 170 -466 170 -769 397 -905 680 -35
74 -45 119 -15 75 35 -53 211 -220 292 -277 133 -94 329 -200 461 -248 281
-103 548 -177 722 -199 26 -4 69 -11 95 -16 26 -4 79 -11 117 -15 39 -3 77 -8
85 -10 103 -26 816 -26 980 0 14 2 54 6 90 10 36 3 72 8 80 10 8 2 33 7 55 10
23 3 52 7 65 10 14 3 52 10 85 16 101 18 254 56 379 94 470 143 852 380 1021
636 120 179 154 347 111 546 -8 39 -65 165 -93 207 -60 90 -125 161 -233 256
-98 86 -336 225 -509 297 -137 57 -390 139 -519 168 -19 4 -199 40 -247 49
-56 11 -170 28 -185 28 -8 0 -42 4 -75 8 -125 18 -208 23 -482 25 -155 2 -283
1 -285 0z m417 -178 c11 -3 40 -8 65 -12 173 -29 352 -131 399 -228 58 -119
-7 -237 -176 -322 -50 -25 -56 -25 -170 -19 -222 12 -602 6 -692 -11 -23 -4
-120 41 -177 83 -119 88 -144 206 -63 308 31 40 148 126 161 118 3 -2 9 0 13
6 9 15 164 60 256 74 78 12 338 14 384 3z m-1355 -482 c14 -3 52 -10 85 -16
129 -23 282 -99 348 -173 49 -53 63 -102 52 -176 l-7 -45 -30 34 c-44 50 -131
98 -236 132 l-94 30 -87 -27 c-310 -93 -461 -153 -621 -243 -119 -68 -114 -69
-196 14 -57 57 -76 104 -68 168 6 55 26 88 83 139 130 117 357 179 626 172 66
-2 131 -6 145 -9z m2700 0 c14 -3 41 -8 60 -11 180 -31 345 -121 400 -218 53
-91 34 -175 -59 -258 l-53 -47 -51 29 c-173 101 -466 220 -652 267 l-107 26
-77 -22 c-110 -31 -213 -84 -255 -131 -20 -22 -37 -40 -39 -40 -2 0 -9 18 -16
39 -13 43 -8 89 13 130 57 109 275 216 486 237 36 3 66 8 68 9 5 5 255 -4 282
-10z m-1775 -511 c71 -54 226 -82 350 -62 72 11 155 43 184 69 25 24 37 17 45
-22 10 -61 -67 -126 -184 -153 -237 -56 -494 47 -444 178 8 21 9 21 49 -10z
m-430 -288 c28 -4 88 -16 135 -27 253 -62 402 -201 367 -341 l-9 -37 -44 44
c-75 74 -247 142 -410 162 -126 15 -384 9 -479 -11 -159 -33 -267 -80 -340
-147 -39 -36 -45 -39 -53 -22 -5 10 -8 36 -7 58 4 79 63 156 164 213 102 57
230 96 357 108 38 4 70 7 72 9 5 4 199 -3 247 -9z m1675 0 c102 -18 151 -29
205 -48 218 -74 335 -212 287 -337 l-9 -25 -19 29 c-48 73 -227 149 -420 179
-96 15 -372 16 -434 2 -14 -3 -51 -11 -82 -16 -128 -24 -266 -88 -323 -151
l-35 -39 -8 33 c-46 168 170 330 498 371 96 12 275 13 340 2z"/>
</g>
</svg>
